<svg width="203" height="211" viewBox="0 0 203 211" fill="none" xmlns="http://www.w3.org/2000/svg">
<path d="M153.319 160.141C180.757 132.052 180.757 86.5106 153.319 58.4217C125.881 30.3328 81.395 30.3328 53.9569 58.4217C26.5188 86.5106 26.5188 132.052 53.9569 160.141C81.395 188.229 125.881 188.229 153.319 160.141Z" fill="#256BFD"/>
<path opacity="0.4" d="M153.319 160.141C180.757 132.052 180.757 86.5106 153.319 58.4217C125.881 30.3328 81.395 30.3328 53.9569 58.4217C26.5188 86.5106 26.5188 132.052 53.9569 160.141C81.395 188.229 125.881 188.229 153.319 160.141Z" fill="black"/>
<path d="M149.043 152.578C176.481 124.489 176.481 78.9483 149.043 50.8594C121.605 22.7705 77.1191 22.7705 49.681 50.8594C22.243 78.9483 22.243 124.489 49.681 152.578C77.1191 180.667 121.605 180.667 149.043 152.578Z" fill="#7D5DF6"/>
<path opacity="0.2" d="M104.022 154.203C133.451 151.275 155.047 125.087 152.258 95.7103C149.47 66.3331 123.353 44.8913 93.9243 47.8187C64.4957 50.7461 42.8996 76.9341 45.6881 106.311C48.4765 135.689 74.5936 157.13 104.022 154.203Z" fill="white"/>
<path d="M104.012 153.973C90.1509 155.351 76.3113 151.142 65.4341 142.239C54.557 133.337 47.4997 120.443 45.7622 106.297C45.7622 106.818 45.8187 107.339 45.8671 107.859C47.2403 122.322 54.1696 135.635 65.1306 144.867C76.0917 154.1 90.1865 158.498 104.315 157.092C118.443 155.686 131.446 148.593 140.465 137.372C149.484 126.15 153.78 111.721 152.407 97.2582C152.35 96.7376 152.278 96.2253 152.221 95.7048C153.175 109.93 148.672 123.976 139.67 134.857C130.668 145.737 117.875 152.595 104.012 153.973Z" fill="#FAFAFA"/>
<path opacity="0.3" d="M93.947 48.0048C107.808 46.6285 121.648 50.8384 132.526 59.7404C143.404 68.6425 150.463 81.5352 152.205 95.6801C152.164 95.1596 152.14 94.6473 152.092 94.1185C150.719 79.6553 143.789 66.343 132.828 57.1101C121.867 47.8771 107.772 43.4799 93.6443 44.8856C79.5163 46.2914 66.5124 53.3851 57.4934 64.6061C48.4744 75.8271 44.179 90.2563 45.5522 104.719C45.6087 105.248 45.6814 105.76 45.7459 106.273C44.7919 92.0485 49.2934 78.004 58.2941 67.1235C67.2947 56.2431 80.0849 49.3844 93.947 48.0048Z" fill="black"/>
<path d="M99.1168 70.8464L136.331 110.66V132.034H118.964V118.343L91.9353 89.426H86.3206V132.034H68.9541V70.8464H99.1168Z" fill="white"/>
</svg>
