<svg width="2387" height="661" viewBox="0 0 2387 661" fill="none" xmlns="http://www.w3.org/2000/svg">
<g clip-path="url(#clip0_104_282)">
<path d="M137.075 219.711C130.278 219.718 123.761 222.422 118.955 227.228C114.149 232.035 111.445 238.551 111.438 245.348V524.073C111.445 530.87 114.149 537.387 118.955 542.193C123.761 546.999 130.278 549.703 137.075 549.711H714.8C721.597 549.703 728.114 546.999 732.92 542.193C737.726 537.387 740.43 530.87 740.438 524.073V245.348C740.43 238.551 737.726 232.035 732.92 227.228C728.114 222.422 721.597 219.718 714.8 219.711H137.075Z" fill="white"/>
<path d="M714.8 550.711H137.075C130.013 550.703 123.242 547.894 118.248 542.9C113.255 537.906 110.446 531.135 110.438 524.073V245.348C110.446 238.286 113.255 231.515 118.248 226.521C123.242 221.528 130.013 218.719 137.075 218.711H714.8C721.862 218.719 728.633 221.528 733.627 226.522C738.62 231.515 741.429 238.286 741.438 245.348V524.073C741.429 531.135 738.62 537.906 733.627 542.9C728.633 547.894 721.862 550.703 714.8 550.711ZM137.075 220.711C130.543 220.718 124.281 223.316 119.662 227.935C115.043 232.554 112.445 238.816 112.438 245.348V524.073C112.445 530.605 115.043 536.867 119.662 541.486C124.281 546.105 130.543 548.703 137.075 548.711H714.8C721.332 548.703 727.594 546.105 732.213 541.486C736.832 536.867 739.43 530.605 739.438 524.073V245.348C739.43 238.816 736.832 232.554 732.213 227.935C727.594 223.316 721.332 220.718 714.8 220.711H137.075Z" fill="#3F3D56"/>
<path d="M303.773 535.098C303.817 533.979 300.388 532.934 296.114 532.764C291.84 532.595 288.339 533.365 288.294 534.484C288.25 535.603 291.679 536.648 295.953 536.817C300.227 536.987 303.728 536.217 303.773 535.098Z" fill="#E6E6E6"/>
<path d="M353.075 532.487C353.12 531.368 349.691 530.323 345.417 530.153C341.142 529.984 337.641 530.754 337.597 531.873C337.553 532.992 340.982 534.037 345.256 534.206C349.53 534.376 353.031 533.606 353.075 532.487Z" fill="#3F3D56"/>
<path d="M284.83 519.885C284.874 518.766 281.445 517.721 277.171 517.552C272.897 517.382 269.396 518.152 269.351 519.271C269.307 520.39 272.736 521.435 277.01 521.605C281.284 521.774 284.785 521.004 284.83 519.885Z" fill="#FF6584"/>
<path d="M261.016 514.327C261.13 513.328 259.69 512.343 257.799 512.128C255.908 511.913 254.283 512.548 254.17 513.547C254.056 514.546 255.496 515.531 257.387 515.746C259.278 515.962 260.903 515.326 261.016 514.327Z" fill="#E6E6E6"/>
<path d="M249.639 502.674C249.752 501.675 248.312 500.691 246.421 500.475C244.531 500.26 242.905 500.895 242.792 501.894C242.678 502.893 244.118 503.878 246.009 504.093C247.9 504.309 249.525 503.674 249.639 502.674Z" fill="#3F3D56"/>
<path d="M313.94 522.516C314.054 521.517 312.613 520.532 310.723 520.317C308.832 520.101 307.207 520.737 307.093 521.736C306.979 522.735 308.419 523.72 310.31 523.935C312.201 524.151 313.826 523.515 313.94 522.516Z" fill="#E6E6E6"/>
<path d="M291.375 527.475C291.489 526.476 290.049 525.491 288.158 525.275C286.267 525.06 284.642 525.695 284.528 526.694C284.415 527.694 285.855 528.678 287.746 528.894C289.636 529.109 291.261 528.474 291.375 527.475Z" fill="#FF6584"/>
<path d="M327.872 535.462C327.986 534.463 326.546 533.478 324.655 533.263C322.764 533.047 321.139 533.683 321.026 534.682C320.912 535.681 322.352 536.666 324.243 536.881C326.134 537.097 327.758 536.461 327.872 535.462Z" fill="#3F3D56"/>
<path d="M5.26701e-06 494.112C-0.000460802 494.269 0.0300089 494.424 0.0896507 494.568C0.149292 494.713 0.236938 494.844 0.347539 494.955C0.45814 495.065 0.589511 495.153 0.734106 495.213C0.8787 495.272 1.03366 495.303 1.19007 495.302H845.48C845.796 495.302 846.098 495.177 846.322 494.954C846.545 494.731 846.67 494.428 846.67 494.112C846.67 493.797 846.545 493.494 846.322 493.271C846.098 493.048 845.796 492.922 845.48 492.922H1.19001C1.03361 492.922 0.878661 492.952 0.734075 493.012C0.58949 493.072 0.458118 493.159 0.347524 493.27C0.236931 493.38 0.149291 493.512 0.0896507 493.656C0.0300107 493.801 -0.000455455 493.956 5.26701e-06 494.112Z" fill="#CCCCCC"/>
<path d="M288.588 473.088C288.013 473.114 287.444 472.964 286.958 472.656C286.472 472.348 286.092 471.898 285.869 471.367C285.647 470.836 285.594 470.249 285.716 469.687C285.839 469.124 286.131 468.613 286.554 468.222L286.746 467.457C286.721 467.396 286.695 467.335 286.67 467.274C286.091 465.905 285.12 464.739 283.88 463.921C282.639 463.102 281.185 462.668 279.699 462.674C278.213 462.679 276.762 463.124 275.528 463.952C274.294 464.779 273.332 465.953 272.763 467.325C270.489 472.804 267.593 478.291 266.88 484.083C266.566 486.643 266.698 489.239 267.271 491.754C261.929 480.1 259.155 467.435 259.137 454.615C259.136 451.398 259.315 448.184 259.672 444.987C259.968 442.366 260.378 439.764 260.903 437.18C263.766 423.162 269.914 410.024 278.841 398.843C283.162 396.485 286.656 392.86 288.853 388.456C289.649 386.872 290.211 385.182 290.523 383.438C290.036 383.502 288.685 376.079 289.053 375.623C288.373 374.592 287.158 374.08 286.416 373.074C282.726 368.072 277.643 368.946 274.99 375.743C269.321 378.604 269.266 383.349 272.744 387.912C274.957 390.815 275.261 394.744 277.203 397.852C277.003 398.108 276.796 398.355 276.596 398.611C272.944 403.307 269.762 408.349 267.094 413.665C267.742 407.709 266.968 401.684 264.834 396.086C262.671 390.869 258.618 386.475 255.048 381.965C250.76 376.547 241.968 378.911 241.212 385.779C241.205 385.846 241.198 385.912 241.191 385.979C241.721 386.278 242.24 386.595 242.748 386.931C243.386 387.357 243.88 387.966 244.166 388.678C244.452 389.39 244.516 390.172 244.35 390.921C244.184 391.67 243.796 392.352 243.236 392.876C242.676 393.401 241.971 393.744 241.213 393.861L241.135 393.873C241.324 395.784 241.658 397.678 242.134 399.538C237.554 417.248 247.441 423.699 261.558 423.988C261.87 424.148 262.173 424.308 262.485 424.46C259.805 432.056 258.123 439.969 257.483 447.999C257.121 452.737 257.142 457.496 257.547 462.23L257.523 462.062C256.5 456.798 253.692 452.048 249.573 448.614C243.454 443.588 234.811 441.738 228.21 437.698C227.509 437.247 226.693 437.007 225.859 437.005C225.026 437.003 224.209 437.239 223.505 437.686C222.802 438.133 222.241 438.772 221.888 439.528C221.536 440.283 221.406 441.123 221.516 441.95C221.525 442.009 221.534 442.067 221.543 442.126C222.527 442.527 223.485 442.989 224.411 443.508C224.942 443.808 225.461 444.125 225.968 444.461C226.606 444.887 227.101 445.496 227.387 446.208C227.673 446.92 227.737 447.702 227.571 448.451C227.405 449.2 227.016 449.882 226.457 450.406C225.897 450.931 225.191 451.274 224.433 451.391L224.355 451.403C224.299 451.411 224.252 451.419 224.196 451.427C225.877 455.441 228.236 459.136 231.171 462.35C234.035 477.81 246.333 479.277 259.489 474.774H259.497C260.94 481.047 263.031 487.152 265.737 492.992H288.03C288.11 492.745 288.182 492.489 288.254 492.241C286.19 492.371 284.119 492.247 282.085 491.874C283.739 489.844 285.393 487.799 287.047 485.769C287.084 485.731 287.119 485.691 287.151 485.649C287.99 484.611 288.837 483.58 289.676 482.541L289.676 482.54C289.721 479.356 289.355 476.179 288.588 473.088Z" fill="#F2F2F2"/>
<path d="M177.301 460.719C176.369 460.762 175.446 460.517 174.657 460.018C173.869 459.519 173.252 458.789 172.892 457.928C172.532 457.067 172.446 456.116 172.644 455.204C172.843 454.292 173.317 453.463 174.002 452.829C174.117 452.373 174.199 452.045 174.314 451.589C174.273 451.49 174.232 451.391 174.19 451.292C173.251 449.073 171.677 447.181 169.666 445.855C167.655 444.528 165.297 443.824 162.888 443.833C160.479 443.842 158.126 444.563 156.125 445.905C154.124 447.247 152.564 449.15 151.641 451.375C147.953 460.258 143.258 469.155 142.102 478.547C141.593 482.698 141.807 486.906 142.737 490.984C134.075 472.089 129.577 451.552 129.548 430.766C129.546 425.55 129.836 420.338 130.416 415.155C130.895 410.905 131.56 406.686 132.411 402.497C137.054 379.768 147.022 358.465 161.496 340.336C168.502 336.513 174.168 330.635 177.73 323.494C179.02 320.926 179.932 318.186 180.437 315.357C179.647 315.461 177.458 303.425 178.054 302.687C176.952 301.016 174.981 300.185 173.778 298.554C167.796 290.443 159.554 291.86 155.252 302.881C146.06 307.52 145.971 315.213 151.611 322.613C155.199 327.32 155.692 333.69 158.84 338.729C158.516 339.144 158.18 339.546 157.856 339.96C151.935 347.574 146.775 355.749 142.449 364.369C143.501 354.712 142.245 344.943 138.785 335.866C135.278 327.407 128.706 320.282 122.918 312.969C115.965 304.185 101.709 308.019 100.484 319.154C100.472 319.262 100.461 319.37 100.449 319.477C101.309 319.962 102.151 320.477 102.974 321.022C104.008 321.713 104.81 322.7 105.274 323.855C105.737 325.009 105.841 326.277 105.572 327.491C105.303 328.706 104.673 329.811 103.765 330.661C102.858 331.512 101.714 332.069 100.485 332.258L100.359 332.277C100.665 335.376 101.206 338.447 101.978 341.463C94.5528 370.179 110.584 380.638 133.473 381.107C133.979 381.366 134.471 381.626 134.976 381.872C130.63 394.189 127.904 407.019 126.866 420.039C126.278 427.721 126.313 435.437 126.97 443.113L126.931 442.841C125.272 434.306 120.719 426.604 114.04 421.037C104.12 412.888 90.1041 409.887 79.4019 403.336C74.2502 400.183 67.6486 404.258 68.5477 410.231C68.5621 410.326 68.5767 410.421 68.5915 410.517C70.1868 411.167 71.7402 411.915 73.2425 412.758C74.1022 413.243 74.9437 413.758 75.7671 414.302C76.8015 414.993 77.6031 415.981 78.0667 417.135C78.5303 418.29 78.6343 419.557 78.3653 420.772C78.0962 421.987 77.4665 423.091 76.5586 423.942C75.6508 424.793 74.5072 425.349 73.2777 425.539L73.1517 425.558C73.0611 425.571 72.9833 425.584 72.8927 425.597C75.6186 432.106 79.4446 438.097 84.2029 443.307C88.8457 468.375 108.787 470.753 130.118 463.453H130.131C132.471 473.624 135.862 483.523 140.249 492.992H176.395C176.525 492.591 176.641 492.176 176.758 491.774C173.412 491.985 170.053 491.785 166.756 491.179C169.438 487.888 172.12 484.571 174.802 481.28C174.862 481.219 174.918 481.154 174.97 481.086C176.33 479.402 177.704 477.73 179.064 476.046L179.065 476.044C179.137 470.882 178.545 465.731 177.302 460.72L177.301 460.719Z" fill="#F2F2F2"/>
<path d="M671.989 181.041C669.562 162.441 626.66 163.627 622.609 181.127C620.46 179.783 614.994 180.713 612.955 182.258C610.917 183.803 609.61 186.074 608.331 188.278C606.584 191.34 604.774 194.512 604.387 198.023C603.984 201.527 605.361 205.496 608.538 207.056C611.058 208.3 616.604 207.46 619.374 206.904C621.307 206.519 622.93 206.183 624.307 205.852C624.77 203.675 624.45 201.403 623.405 199.437C624.518 199.658 625.569 200.123 626.481 200.798C627.393 201.473 628.145 202.341 628.682 203.341C628.899 203.759 636.759 262.926 636.759 262.926C638.908 263.185 641.076 263.239 643.235 263.088C644.575 255.806 644.818 248.365 643.958 241.011C646.235 245.214 648.035 249.658 649.327 254.26C650.067 256.834 650.675 259.445 651.149 262.081C669.855 258.583 695.142 246.535 699.756 226.077C699.73 226.011 699.705 225.945 699.679 225.879C699.427 225.254 699.4 224.56 699.603 223.918C699.806 223.275 700.226 222.722 700.791 222.355C701.357 221.988 702.032 221.829 702.702 221.905C703.372 221.981 703.994 222.287 704.463 222.772C705.027 223.352 705.53 223.848 705.954 224.233C704.315 211.168 694.405 199.412 671.989 181.041Z" fill="#2F2E41"/>
<path d="M398.857 636.567L388.37 631.084L405 587.121L420.479 595.214L398.857 636.567Z" fill="#A0616A"/>
<path d="M356.54 636.037C355.891 637.281 355.762 638.731 356.181 640.07C356.601 641.409 357.534 642.527 358.776 643.179L379.629 654.079L387.101 648.526L384.622 656.685L392.488 660.803L404.136 633.141L401.481 631.55L390.663 625.034L387.169 622.939L383.245 630.444L360.578 633.238C359.729 633.343 358.918 633.653 358.215 634.14C357.511 634.628 356.937 635.279 356.54 636.037Z" fill="#2F2E41"/>
<path d="M388.113 474.722L380.485 465.674L412.533 431.29L423.791 444.644L388.113 474.722Z" fill="#A0616A"/>
<path d="M349.152 458.198C348.08 459.103 347.411 460.396 347.292 461.794C347.172 463.192 347.612 464.58 348.515 465.654L363.683 483.643L372.702 481.335L367.317 487.946L373.035 494.738L394.297 473.552L392.442 471.073L384.9 460.944L382.46 457.681L375.985 463.14L353.949 457.138C353.124 456.913 352.256 456.892 351.42 457.077C350.584 457.261 349.806 457.646 349.152 458.198Z" fill="#2F2E41"/>
<path d="M724.531 440.818C724.531 440.818 756.918 510.137 622.802 491.458C622.802 491.458 551.347 412.27 553.412 402.742C553.412 402.742 523 371.84 524.488 371.277C525.976 370.715 526.894 369.493 524.435 369.604C521.976 369.715 521.976 366.054 521.976 366.054C521.976 366.054 467.015 425.657 420.736 455.234L404.736 437.234C404.736 437.234 410.976 417.715 413.976 417.715C416.976 417.715 418.01 418.436 418.493 414.575C418.976 410.715 416.587 407.4 419.782 407.057C422.976 406.715 489.184 329.335 489.184 329.335C489.184 329.335 496.327 303.848 518.152 308.781C539.976 313.715 653.382 405.915 653.382 405.915L724.531 440.818Z" fill="#2F2E41"/>
<path d="M669.918 493.704L492.737 492.234L415.737 614.234L393.977 602.715L398.8 600.679C398.8 600.679 397.34 583.722 399.129 579.43C400.918 575.137 406.24 576.428 406.24 576.428L451.133 472.9C454.229 463.71 460.311 455.821 468.411 450.489C476.51 445.156 486.161 442.688 495.826 443.477C532.973 438.059 593.273 442.388 655.918 447.704L669.918 493.704Z" fill="#2F2E41"/>
<path d="M567.335 286.073C570.708 286.59 573.746 288.402 575.802 291.125C577.859 293.847 578.772 297.265 578.347 300.65C578.25 301.337 578.096 302.015 577.887 302.676L614.294 330.292L606.781 353.695L560.998 310.474C558.323 309.395 556.08 307.461 554.619 304.973C553.158 302.485 552.562 299.584 552.924 296.722C553.145 295.096 553.685 293.529 554.512 292.111C555.339 290.693 556.437 289.451 557.744 288.458C559.05 287.464 560.54 286.738 562.127 286.32C563.715 285.902 565.369 285.801 566.996 286.022C567.109 286.037 567.222 286.054 567.335 286.073Z" fill="#A0616A"/>
<path d="M727.948 287.797L714.858 324.037L663.668 396.377C663.668 396.377 663.248 396.197 662.488 395.877C658.088 393.977 642.108 386.997 627.078 379.067C612.968 371.617 599.678 363.327 597.618 357.627C597.398 357.027 597.198 356.447 597.018 355.887V355.877C596.059 352.974 595.457 349.965 595.228 346.917C595.058 344.567 595.208 343.307 594.888 343.157C594.638 343.047 594.118 343.587 592.968 344.807C592.888 344.887 592.818 344.967 592.738 345.037C588.578 349.207 583.468 348.667 584.718 346.687C585.998 344.657 585.328 344.697 583.448 342.577C582.048 340.997 577.498 334.817 575.258 331.767C574.488 330.717 573.998 330.037 573.998 330.037L574.768 328.827L576.898 325.487L587.028 309.607L587.588 308.737C587.588 308.737 608.408 313.547 611.178 318.117C613.958 322.687 606.988 322.537 613.958 322.687C620.928 322.837 628.038 313.357 622.948 322.787C617.858 332.207 619.198 335.497 625.498 334.007C628.058 333.397 632.108 335.327 636.008 337.827V337.837C638.447 339.421 640.8 341.134 643.058 342.967C645.468 344.907 647.098 346.377 647.098 346.377L686.638 266.157L691.018 257.277C692.353 254.575 694.213 252.166 696.49 250.191C698.767 248.217 701.414 246.716 704.278 245.777L705.648 248.167C714.178 260.729 721.637 273.986 727.948 287.797Z" fill="#6C63FF"/>
<path d="M730.138 402.817C742.258 405.637 729.364 493.862 714.918 494.137C609.918 496.137 641.888 437.227 636.258 431.587C630.628 425.937 625.548 429.987 630.628 421.197C634.328 414.797 639.818 415.747 639.898 412.157C639.938 410.817 639.228 408.857 637.388 405.637C630.628 393.797 630.628 390.267 630.628 390.267C628.943 386.712 627.748 382.944 627.078 379.067C625.981 373.302 625.846 367.396 626.678 361.587C627.947 353.065 631.138 344.944 636.008 337.837V337.827C636.518 337.067 637.048 336.297 637.608 335.537C638.878 333.807 645.918 334.137 645.918 334.137L660.918 271.137L652.238 246.017L693.348 226.757L704.278 245.777L705.648 248.167C714.178 260.729 721.637 273.986 727.948 287.797C734.018 301.307 739.008 316.307 739.188 329.357C739.668 363.387 733.798 373.507 733.798 373.507C733.798 373.507 748.048 384.157 740.918 390.667C733.798 397.187 718.018 399.997 730.138 402.817Z" fill="#6C63FF"/>
<path d="M543.898 277.785L537.191 282.88C535.866 283.893 534.996 285.39 534.773 287.043C534.55 288.696 534.991 290.37 535.999 291.698L552.154 312.932L561.693 325.459C562.704 326.782 564.199 327.65 565.849 327.873C567.5 328.096 569.171 327.656 570.497 326.649L577.213 321.548C578.532 320.532 579.397 319.036 579.619 317.385C579.84 315.735 579.401 314.064 578.397 312.736L577.407 311.427L557.837 285.715L552.703 278.975C552.203 278.318 551.579 277.767 550.866 277.352C550.153 276.936 549.365 276.666 548.547 276.555C547.729 276.445 546.898 276.496 546.1 276.707C545.303 276.918 544.554 277.284 543.898 277.785Z" fill="#3F3D56"/>
<path d="M547.406 277.4L540.18 282.44C539.543 282.857 539.001 283.404 538.591 284.045C538.18 284.687 537.911 285.408 537.799 286.161C537.688 286.914 537.737 287.682 537.945 288.415C538.152 289.148 538.512 289.828 539.001 290.411L548.459 301.807L553.499 307.878L556.862 311.928L564.383 320.99C565.446 322.205 566.92 322.987 568.522 323.187C570.125 323.386 571.745 322.989 573.074 322.071L578.489 318.294L580.29 317.037C581.188 316.438 581.889 315.588 582.305 314.592C582.721 313.596 582.834 312.499 582.628 311.439C582.447 310.559 582.05 309.738 581.471 309.05L559.248 282.271L556.097 278.481C555.035 277.263 553.561 276.48 551.958 276.281C550.355 276.081 548.734 276.48 547.406 277.4Z" fill="#6C63FF"/>
<path d="M552.023 305.545C555.396 306.062 558.434 307.875 560.49 310.597C562.547 313.32 563.46 316.737 563.035 320.123C562.938 320.809 562.784 321.487 562.575 322.148L598.982 349.764L591.469 373.168L545.686 329.946C543.011 328.867 540.768 326.933 539.307 324.445C537.846 321.958 537.25 319.056 537.612 316.194C537.833 314.568 538.373 313.001 539.2 311.583C540.027 310.165 541.125 308.924 542.432 307.93C543.738 306.936 545.228 306.21 546.815 305.792C548.403 305.374 550.057 305.273 551.684 305.494C551.797 305.51 551.91 305.527 552.023 305.545Z" fill="#A0616A"/>
<path d="M700.508 264.59C703.69 265.238 706.696 266.563 709.32 268.477C711.944 270.39 714.126 272.846 715.716 275.677C717.306 278.509 718.268 281.65 718.536 284.887C718.804 288.123 718.372 291.379 717.269 294.434L699.55 343.507L648.352 415.853C648.352 415.853 586.952 389.918 582.303 377.099C577.655 364.28 581.853 359.856 577.655 364.28C573.457 368.703 568.134 368.179 569.408 366.154C570.683 364.13 570.012 364.173 568.136 362.053C566.259 359.932 558.687 349.512 558.687 349.512L572.275 328.211C572.275 328.211 593.096 333.017 595.87 337.59C598.644 342.163 591.672 342.014 598.644 342.163C605.616 342.313 612.728 332.829 607.636 342.256C602.543 351.684 603.886 354.97 610.186 353.477C616.487 351.983 631.781 365.851 631.781 365.851L675.71 276.751C677.919 272.27 681.551 268.646 686.037 266.446C690.523 264.246 695.612 263.593 700.508 264.59Z" fill="#6C63FF"/>
<path d="M674.31 235.05C687.038 222.322 687.038 201.686 674.31 188.958C661.582 176.23 640.945 176.23 628.217 188.958C615.489 201.686 615.489 222.322 628.217 235.05C640.945 247.778 661.582 247.778 674.31 235.05Z" fill="#A0616A"/>
<path d="M689.375 176.498C686.948 157.899 644.046 159.085 639.995 176.584C637.846 175.24 632.38 176.171 630.341 177.716C628.302 179.26 626.996 181.531 625.716 183.736C623.97 186.798 611.749 197.157 609.918 194.137C605.797 187.34 597.715 202.193 603.918 212.137C605.405 214.521 634.147 210.694 636.918 210.137C638.851 209.753 635.54 210.467 636.918 210.137C637.363 207.98 641.853 196.833 640.791 194.895C641.904 195.116 642.954 195.581 643.867 196.255C644.779 196.93 645.531 197.799 646.068 198.798C646.285 199.217 654.145 258.384 654.145 258.384C656.293 258.643 658.462 258.697 660.621 258.546C661.96 251.264 662.204 243.823 661.344 236.469C663.62 240.672 665.421 245.116 666.713 249.718C667.453 252.292 668.061 254.902 668.535 257.538C687.241 254.04 712.528 241.992 717.141 221.535C691.918 213.137 711.79 194.87 689.375 176.498Z" fill="#2F2E41"/>
<path d="M404.092 269.964C404.51 267.091 401.501 264.275 397.371 263.674C393.241 263.073 389.554 264.915 389.136 267.788C388.718 270.661 391.727 273.477 395.857 274.078C399.987 274.679 403.674 272.837 404.092 269.964Z" fill="#E6E6E6"/>
<path d="M453.264 265.166C453.682 262.293 450.672 259.477 446.542 258.876C442.413 258.275 438.726 260.117 438.308 262.99C437.89 265.863 440.899 268.679 445.029 269.28C449.159 269.881 452.846 268.039 453.264 265.166Z" fill="#3F3D56"/>
<path d="M390.627 230.156C391.045 227.283 388.036 224.467 383.906 223.866C379.776 223.265 376.089 225.107 375.671 227.98C375.253 230.853 378.263 233.669 382.392 234.27C386.522 234.871 390.209 233.029 390.627 230.156Z" fill="#FF6584"/>
<path d="M369.261 213.85C369.281 211.213 367.81 209.063 365.975 209.049C364.14 209.035 362.637 211.162 362.617 213.8C362.597 216.437 364.068 218.587 365.903 218.601C367.738 218.614 369.241 216.488 369.261 213.85Z" fill="#E6E6E6"/>
<path d="M362.015 183.478C362.035 180.841 360.564 178.691 358.729 178.678C356.895 178.664 355.391 180.791 355.371 183.428C355.351 186.066 356.822 188.215 358.657 188.229C360.492 188.243 361.996 186.116 362.015 183.478Z" fill="#3F3D56"/>
<path d="M418.36 236.93C418.38 234.293 416.909 232.143 415.074 232.13C413.239 232.116 411.736 234.243 411.716 236.88C411.696 239.518 413.167 241.667 415.002 241.681C416.837 241.695 418.34 239.568 418.36 236.93Z" fill="#E6E6E6"/>
<path d="M394.598 248.794C394.618 246.157 393.147 244.007 391.312 243.994C389.478 243.98 387.974 246.107 387.954 248.744C387.934 251.382 389.405 253.531 391.24 253.545C393.075 253.559 394.579 251.432 394.598 248.794Z" fill="#FF6584"/>
<path d="M427.676 270.722C427.696 268.085 426.224 265.935 424.39 265.921C422.555 265.907 421.051 268.034 421.031 270.672C421.011 273.309 422.483 275.459 424.317 275.473C426.152 275.487 427.656 273.36 427.676 270.722Z" fill="#3F3D56"/>
<path d="M541.19 298.767C541.64 298.446 541.353 297.275 540.55 296.152C539.747 295.029 538.732 294.379 538.283 294.7C537.833 295.021 538.12 296.192 538.923 297.315C539.726 298.438 540.741 299.089 541.19 298.767Z" fill="#3F3D56"/>
<path d="M538.19 294.767C538.64 294.446 538.353 293.275 537.55 292.152C536.747 291.029 535.732 290.379 535.283 290.7C534.833 291.021 535.12 292.192 535.923 293.315C536.726 294.438 537.741 295.089 538.19 294.767Z" fill="#3F3D56"/>
</g>
<g clip-path="url(#clip1_104_282)">
<path d="M1440.17 384.598L1118.07 473.429L1012 88.8313L1334.1 0L1440.17 384.598Z" fill="white"/>
<path d="M1440.17 384.598L1118.07 473.429L1012 88.8313L1334.1 0L1440.17 384.598ZM1122.18 466.18L1432.92 380.482L1329.99 7.24948L1019.25 92.9466L1122.18 466.18Z" fill="#F1F1F1"/>
<path d="M1264.01 172.293L1183.26 194.561C1182.13 194.873 1180.91 194.722 1179.88 194.138C1178.86 193.555 1178.1 192.589 1177.79 191.45L1155.52 110.709C1155.21 109.57 1155.36 108.354 1155.94 107.327C1156.52 106.299 1157.49 105.546 1158.63 105.23L1239.37 82.9629C1240.51 82.6502 1241.73 82.8021 1242.75 83.3852C1243.78 83.9682 1244.53 84.935 1244.85 86.0733L1267.12 166.814C1267.43 167.953 1267.28 169.17 1266.69 170.197C1266.11 171.224 1265.14 171.978 1264.01 172.293ZM1159.1 106.948C1158.42 107.137 1157.84 107.59 1157.49 108.206C1157.14 108.822 1157.05 109.552 1157.24 110.236L1179.5 190.977C1179.69 191.66 1180.15 192.24 1180.76 192.59C1181.38 192.939 1182.11 193.031 1182.79 192.843L1263.53 170.576C1264.22 170.386 1264.8 169.934 1265.15 169.318C1265.49 168.701 1265.59 167.972 1265.4 167.288L1243.13 86.5471C1242.94 85.8641 1242.49 85.2841 1241.87 84.9342C1241.26 84.5844 1240.53 84.4933 1239.84 84.6809L1159.1 106.948Z" fill="#E5E5E5"/>
<path d="M1243.54 188.567L1162.8 210.835C1161.77 211.116 1160.68 210.979 1159.75 210.455C1158.83 209.93 1158.15 209.06 1157.87 208.035L1135.6 127.294C1135.32 126.269 1135.45 125.174 1135.98 124.25C1136.5 123.325 1137.37 122.647 1138.4 122.363L1219.14 100.096C1220.16 99.8142 1221.26 99.9509 1222.18 100.476C1223.11 101 1223.79 101.871 1224.07 102.895L1246.34 183.636C1246.62 184.661 1246.48 185.756 1245.96 186.68C1245.43 187.605 1244.56 188.283 1243.54 188.567Z" fill="#6C63FF"/>
<path d="M1337.07 199.59L1111.76 261.729L1114.16 270.436L1339.47 208.297L1337.07 199.59Z" fill="#F1F1F1"/>
<path d="M1343.33 222.292L1118.02 284.431L1120.42 293.138L1345.74 230.999L1343.33 222.292Z" fill="#F1F1F1"/>
<path d="M1349.59 244.994L1124.28 307.133L1126.68 315.84L1352 253.701L1349.59 244.994Z" fill="#F1F1F1"/>
<path d="M1360.61 284.949L1135.3 347.088L1137.7 355.795L1363.01 293.656L1360.61 284.949Z" fill="#F1F1F1"/>
<path d="M1366.87 307.651L1141.56 369.79L1143.96 378.497L1369.28 316.358L1366.87 307.651Z" fill="#F1F1F1"/>
<path d="M1373.14 330.353L1147.82 392.492L1150.22 401.199L1375.54 339.06L1373.14 330.353Z" fill="#F1F1F1"/>
<path d="M1543.28 472.144H1209.15V73.1887H1543.28V472.144Z" fill="white"/>
<path d="M1543.28 472.144H1209.15V73.1887H1543.28V472.144ZM1215.04 466.25H1537.38V79.0832H1215.04V466.25Z" fill="#E5E5E5"/>
<path d="M1482.44 244.695H1291.41V253.727H1482.44V244.695Z" fill="#6C63FF"/>
<path d="M1482.44 268.178H1291.41V277.21H1482.44V268.178Z" fill="#6C63FF"/>
<path d="M1482.44 291.661H1291.41V300.694H1482.44V291.661Z" fill="#6C63FF"/>
<path d="M1275.88 256.428C1279.13 256.428 1281.77 253.789 1281.77 250.534C1281.77 247.278 1279.13 244.639 1275.88 244.639C1272.62 244.639 1269.98 247.278 1269.98 250.534C1269.98 253.789 1272.62 256.428 1275.88 256.428Z" fill="#6C63FF"/>
<path d="M1482.44 143.505H1291.41V152.537H1482.44V143.505Z" fill="#E5E5E5"/>
<path d="M1482.44 166.989H1291.41V176.021H1482.44V166.989Z" fill="#E5E5E5"/>
<path d="M1482.44 190.472H1291.41V199.504H1482.44V190.472Z" fill="#E5E5E5"/>
<path d="M1275.88 154.257C1279.13 154.257 1281.77 151.617 1281.77 148.362C1281.77 145.107 1279.13 142.467 1275.88 142.467C1272.62 142.467 1269.98 145.107 1269.98 148.362C1269.98 151.617 1272.62 154.257 1275.88 154.257Z" fill="#E5E5E5"/>
<path d="M1482.44 346.867H1291.41V355.899H1482.44V346.867Z" fill="#E5E5E5"/>
<path d="M1482.44 370.35H1291.41V379.382H1482.44V370.35Z" fill="#E5E5E5"/>
<path d="M1482.44 393.833H1291.41V402.866H1482.44V393.833Z" fill="#E5E5E5"/>
<path d="M1275.88 357.618C1279.13 357.618 1281.77 354.979 1281.77 351.723C1281.77 348.468 1279.13 345.829 1275.88 345.829C1272.62 345.829 1269.98 348.468 1269.98 351.723C1269.98 354.979 1272.62 357.618 1275.88 357.618Z" fill="#E5E5E5"/>
<path d="M1527.68 506.498C1565.39 506.498 1595.97 475.922 1595.97 438.205C1595.97 400.488 1565.39 369.912 1527.68 369.912C1489.96 369.912 1459.38 400.488 1459.38 438.205C1459.38 475.922 1489.96 506.498 1527.68 506.498Z" fill="#6C63FF"/>
<path d="M1546.6 433.848V420.781C1546.6 418.295 1546.11 415.833 1545.16 413.536C1544.21 411.239 1542.82 409.151 1541.06 407.393C1539.3 405.635 1537.22 404.24 1534.92 403.288C1532.62 402.336 1530.16 401.846 1527.68 401.846C1525.19 401.846 1522.73 402.336 1520.43 403.288C1518.14 404.24 1516.05 405.635 1514.29 407.393C1512.54 409.151 1511.14 411.239 1510.19 413.536C1509.24 415.833 1508.75 418.295 1508.76 420.781V433.848C1506.23 433.962 1503.84 435.047 1502.09 436.877C1500.34 438.706 1499.36 441.14 1499.36 443.672V474.551H1555.99V443.672C1555.99 441.14 1555.02 438.706 1553.27 436.877C1551.52 435.047 1549.13 433.962 1546.6 433.848ZM1527.68 408.522C1530.93 408.526 1534.04 409.819 1536.34 412.117C1538.64 414.415 1539.93 417.531 1539.94 420.781V433.826H1515.42V420.781C1515.42 417.531 1516.71 414.415 1519.01 412.117C1521.31 409.819 1524.43 408.526 1527.68 408.522Z" fill="white"/>
<path d="M1532.77 449.098C1532.77 448.22 1532.54 447.357 1532.11 446.593C1531.68 445.828 1531.06 445.189 1530.3 444.736C1529.55 444.283 1528.7 444.032 1527.82 444.007C1526.94 443.983 1526.07 444.186 1525.3 444.596C1524.52 445.006 1523.86 445.61 1523.39 446.349C1522.92 447.088 1522.64 447.937 1522.59 448.814C1522.55 449.69 1522.72 450.564 1523.11 451.351C1523.5 452.138 1524.09 452.811 1524.81 453.305V464.37H1530.54V453.305C1531.23 452.838 1531.79 452.211 1532.18 451.478C1532.56 450.745 1532.77 449.927 1532.77 449.098Z" fill="#6C63FF"/>
<line x1="1556" y1="342.5" x2="2089.03" y2="342.5" stroke="black" stroke-dasharray="2 2"/>
</g>
<g clip-path="url(#clip2_104_282)">
<path d="M2038.61 148.967C2053.36 148.967 2065.32 137.013 2065.32 122.266C2065.32 107.52 2053.36 95.5654 2038.61 95.5654C2023.87 95.5654 2011.91 107.52 2011.91 122.266C2011.91 137.013 2023.87 148.967 2038.61 148.967Z" fill="#FD6584"/>
<path d="M2098.37 109.623C2097.62 107.154 2096.16 104.959 2094.18 103.308C2092.19 101.658 2089.77 100.623 2087.2 100.333C2087.14 100.328 2087.08 100.328 2087.02 100.333C2086.95 100.31 2086.88 100.294 2086.8 100.283C2077.86 99.1229 2067.92 101.943 2061.23 108.083C2058.75 110.326 2056.76 113.065 2055.4 116.123C2054.16 114.429 2052.53 113.063 2050.64 112.143C2048.75 111.223 2046.67 110.777 2044.57 110.843C2041.87 111.022 2039.28 112.031 2037.17 113.733C2035.06 115.435 2033.52 117.746 2032.77 120.353C2032.69 120.671 2032.71 121.008 2032.84 121.312C2032.96 121.617 2033.18 121.873 2033.46 122.043C2034.27 122.731 2035.22 123.217 2036.25 123.463C2038.46 123.933 2040.69 124.363 2042.92 124.753C2047.28 125.513 2051.67 126.13 2056.07 126.603C2058.98 126.913 2061.9 127.16 2064.82 127.343C2070.86 127.723 2076.93 127.813 2082.98 127.623C2085.98 127.523 2088.86 127.423 2091.6 126.103C2093.6 125.121 2095.31 123.635 2096.55 121.793C2097.73 120.021 2098.5 118.012 2098.81 115.91C2099.13 113.807 2098.98 111.661 2098.37 109.623Z" fill="#E6E6E6"/>
<path d="M2043.44 148.523C2043.39 147.404 2043.2 146.296 2042.88 145.223C2042.13 142.754 2040.67 140.56 2038.68 138.909C2036.69 137.259 2034.27 136.225 2031.7 135.933C2031.65 135.928 2031.59 135.928 2031.53 135.933C2031.46 135.911 2031.38 135.895 2031.3 135.883C2026.35 135.277 2021.33 135.793 2016.61 137.393C2009.35 139.823 2002.98 144.723 1999.91 151.723C1998.67 150.028 1997.04 148.661 1995.15 147.741C1993.26 146.821 1991.17 146.375 1989.07 146.443C1986.37 146.622 1983.78 147.631 1981.67 149.333C1979.56 151.035 1978.02 153.346 1977.27 155.953C1977.2 156.271 1977.22 156.606 1977.34 156.91C1977.47 157.213 1977.68 157.47 1977.96 157.643C1978.77 158.329 1979.72 158.815 1980.75 159.063C1982.97 159.533 1985.19 159.963 1987.43 160.353C1991.79 161.113 1996.17 161.73 2000.57 162.203C2009.51 163.162 2018.51 163.503 2027.49 163.223C2030.48 163.123 2033.37 163.023 2036.11 161.703C2038.11 160.721 2039.81 159.235 2041.05 157.393C2042.81 154.781 2043.65 151.662 2043.44 148.523Z" fill="#E6E6E6"/>
<path d="M2241.13 485.48H2216.79V105.51C2215.15 104.3 2213.5 103.1 2211.83 101.93C2211.5 101.7 2211.17 101.47 2210.84 101.24C2191.59 87.7748 2170.76 76.7127 2148.83 68.3001L2144.11 133.4L2144.11 133.404H2113.74V57.3901C2111.76 56.9001 2109.78 56.4401 2107.78 56.0101V133.404H1993.1V54.0001C1991.11 54.3701 1989.12 54.7501 1987.14 55.1601V133.404H1955.77L1955.77 133.4L1950.82 65.1301C1929.47 72.5294 1909.07 82.4175 1890.04 94.5901C1889.38 95.0101 1888.72 95.4301 1888.06 95.8701C1886.73 96.7301 1885.4 97.6101 1884.09 98.5001V485.48H1849.82C1845.44 485.477 1841.12 486.55 1837.24 488.605C1833.37 490.659 1830.06 493.633 1827.6 497.264C1825.15 500.896 1823.62 505.074 1823.15 509.434C1822.69 513.794 1823.3 518.201 1824.93 522.27C1825.42 523.5 1826.01 524.691 1826.68 525.83C1827.55 527.316 1828.56 528.716 1829.7 530.01C1832.21 532.873 1835.31 535.167 1838.78 536.738C1842.25 538.309 1846.01 539.121 1849.82 539.12H2241.13C2248.24 539.12 2255.06 536.294 2260.09 531.265C2265.12 526.235 2267.95 519.413 2267.95 512.3C2267.95 505.187 2265.12 498.365 2260.09 493.335C2255.06 488.306 2248.24 485.48 2241.13 485.48ZM2137.57 223.782L2118.64 485.48H1981.24L1962.31 223.782H2137.57ZM2143.68 139.363L2139.01 203.919H2113.74V139.363H2143.68ZM2107.78 139.363V203.919H2062.15C2061.23 202.126 2059.84 200.62 2058.13 199.569C2056.41 198.517 2054.44 197.96 2052.43 197.96H2046.47C2044.45 197.96 2042.48 198.517 2040.76 199.569C2039.05 200.62 2037.66 202.126 2036.74 203.919H1993.1V139.363H2107.78ZM1987.14 203.919H1960.87L1956.2 139.363H1987.14V203.919Z" fill="#F2F2F2"/>
<path d="M1825.37 528.727C1834.05 539.02 1843.45 548.694 1853.49 557.677L2233.07 558.677C2243.1 549.694 2252.5 540.02 2261.19 529.727L1825.37 528.727Z" fill="#3F3D56"/>
<path d="M2017.06 431.917V534.477H2088.91V431.917C2088.91 431.179 2088.67 430.46 2088.24 429.866C2087.8 429.272 2087.18 428.834 2086.48 428.617C2086.15 428.507 2085.8 428.453 2085.45 428.457H2020.53C2020.07 428.456 2019.62 428.545 2019.2 428.718C2018.78 428.891 2018.4 429.146 2018.08 429.467C2017.75 429.789 2017.5 430.171 2017.32 430.591C2017.15 431.011 2017.06 431.462 2017.06 431.917ZM2045.1 467.157C2045.12 465.135 2045.93 463.202 2047.37 461.78C2048.81 460.357 2050.75 459.558 2052.77 459.558C2054.79 459.558 2056.73 460.357 2058.17 461.78C2059.6 463.202 2060.42 465.135 2060.44 467.157V479.057C2060.43 481.084 2059.62 483.025 2058.18 484.455C2056.74 485.885 2054.8 486.688 2052.77 486.688C2050.74 486.688 2048.8 485.885 2047.36 484.455C2045.92 483.025 2045.11 481.084 2045.1 479.057V467.157Z" fill="#2F2E41"/>
<path d="M2016.84 531.197V541.087C2016.84 541.599 2017.04 542.09 2017.4 542.453C2017.77 542.816 2018.26 543.022 2018.77 543.027H2087.2C2087.71 543.024 2088.2 542.819 2088.56 542.455C2088.92 542.091 2089.13 541.599 2089.13 541.087V531.197H2016.84Z" fill="#3F3D56"/>
<path d="M1904.03 277.397V464.657C1904.03 467.043 1904.98 469.331 1906.67 471.019C1908.35 472.706 1910.64 473.655 1913.03 473.657H2190.53C2192.91 473.655 2195.2 472.706 2196.89 471.019C2198.58 469.331 2199.53 467.043 2199.53 464.657V277.397C2199.52 275.012 2198.57 272.728 2196.88 271.043C2195.2 269.358 2192.91 268.41 2190.53 268.407H1913.03C1910.64 268.41 1908.36 269.358 1906.67 271.043C1904.98 272.728 1904.03 275.012 1904.03 277.397Z" fill="#3F3D56"/>
<path d="M1910.54 279.727V462.347C1910.54 463.622 1911.05 464.844 1911.95 465.745C1912.85 466.647 1914.07 467.154 1915.35 467.157H2188.22C2189.49 467.154 2190.72 466.647 2191.62 465.745C2192.52 464.844 2193.03 463.622 2193.03 462.347V279.727C2193.03 278.45 2192.52 277.226 2191.62 276.322C2190.72 275.418 2189.49 274.909 2188.22 274.907H1915.35C1914.07 274.909 1912.85 275.418 1911.95 276.322C1911.04 277.226 1910.54 278.45 1910.54 279.727Z" fill="#6C63FF"/>
<path d="M1966.18 545.357C1966.46 545.705 1966.81 545.986 1967.21 546.178C1967.61 546.37 1968.05 546.469 1968.5 546.467H2130.84C2131.28 546.466 2131.72 546.367 2132.12 546.175C2132.52 545.984 2132.87 545.706 2133.15 545.361C2133.43 545.016 2133.63 544.614 2133.74 544.182C2133.84 543.75 2133.85 543.301 2133.76 542.867L2131.24 530.897C2131.13 530.408 2130.91 529.954 2130.58 529.575C2130.26 529.196 2129.84 528.905 2129.38 528.727C2129.04 528.594 2128.68 528.526 2128.32 528.527H1971.01C1970.65 528.526 1970.29 528.594 1969.95 528.727C1969.48 528.904 1969.07 529.196 1968.74 529.575C1968.42 529.954 1968.19 530.408 1968.09 530.897L1965.57 542.867C1965.48 543.301 1965.49 543.75 1965.59 544.18C1965.7 544.611 1965.9 545.013 1966.18 545.357Z" fill="#2F2E41"/>
<path d="M1971.01 531.027C1970.96 531.026 1970.91 531.035 1970.86 531.052C1970.78 531.08 1970.71 531.126 1970.65 531.187C1970.6 531.249 1970.56 531.324 1970.54 531.405L1968.01 543.382C1968 543.451 1968 543.522 1968.02 543.591C1968.04 543.659 1968.07 543.723 1968.12 543.777L1968.13 543.791C1968.17 543.847 1968.23 543.893 1968.29 543.923C1968.36 543.954 1968.43 543.969 1968.5 543.966H2130.84C2130.91 543.967 2130.98 543.952 2131.04 543.922C2131.11 543.891 2131.16 543.847 2131.21 543.792C2131.26 543.738 2131.29 543.674 2131.31 543.605C2131.33 543.536 2131.33 543.464 2131.31 543.394L2128.79 531.411C2128.77 531.332 2128.74 531.26 2128.68 531.199C2128.63 531.138 2128.56 531.091 2128.49 531.062C2128.43 531.039 2128.38 531.027 2128.32 531.027H1971.01Z" fill="white"/>
<path d="M1924.12 300.063H2179.44C2179.71 300.057 2179.96 299.948 2180.15 299.758C2180.33 299.568 2180.44 299.313 2180.44 299.048C2180.44 298.783 2180.33 298.528 2180.15 298.338C2179.96 298.148 2179.71 298.039 2179.44 298.033H1924.12C1923.86 298.039 1923.6 298.148 1923.42 298.338C1923.23 298.528 1923.13 298.783 1923.13 299.048C1923.13 299.313 1923.23 299.568 1923.42 299.758C1923.6 299.948 1923.86 300.057 1924.12 300.063Z" fill="#3F3D56"/>
<path d="M2162.06 292.848C2165.35 292.848 2168.01 290.125 2168.01 286.765C2168.01 283.406 2165.35 280.682 2162.06 280.682C2158.78 280.682 2156.11 283.406 2156.11 286.765C2156.11 290.125 2158.78 292.848 2162.06 292.848Z" fill="#3F3D56"/>
<path d="M2141.51 292.848C2144.79 292.848 2147.46 290.125 2147.46 286.765C2147.46 283.406 2144.79 280.682 2141.51 280.682C2138.22 280.682 2135.56 283.406 2135.56 286.765C2135.56 290.125 2138.22 292.848 2141.51 292.848Z" fill="#3F3D56"/>
<path d="M2120.95 292.848C2124.24 292.848 2126.9 290.125 2126.9 286.765C2126.9 283.406 2124.24 280.682 2120.95 280.682C2117.67 280.682 2115 283.406 2115 286.765C2115 290.125 2117.67 292.848 2120.95 292.848Z" fill="#3F3D56"/>
<path d="M1935.41 283.297C1935.41 283.44 1935.44 283.583 1935.49 283.716C1935.55 283.849 1935.63 283.97 1935.73 284.072C1935.83 284.175 1935.95 284.256 1936.08 284.311C1936.21 284.367 1936.36 284.396 1936.5 284.397H1951.1C1951.39 284.39 1951.66 284.271 1951.86 284.064C1952.07 283.858 1952.18 283.58 1952.18 283.292C1952.18 283.003 1952.07 282.726 1951.86 282.519C1951.66 282.313 1951.39 282.193 1951.1 282.187H1936.5C1936.21 282.19 1935.93 282.309 1935.73 282.517C1935.52 282.725 1935.41 283.005 1935.41 283.297Z" fill="#3F3D56"/>
<path d="M1935.41 287.447C1935.41 287.59 1935.44 287.733 1935.49 287.866C1935.54 287.999 1935.63 288.12 1935.73 288.222C1935.83 288.325 1935.95 288.406 1936.08 288.461C1936.21 288.517 1936.36 288.546 1936.5 288.547H1951.1C1951.39 288.54 1951.66 288.421 1951.86 288.215C1952.07 288.008 1952.18 287.731 1952.18 287.442C1952.18 287.153 1952.07 286.875 1951.86 286.669C1951.66 286.462 1951.39 286.343 1951.1 286.337H1936.5C1936.21 286.34 1935.93 286.459 1935.73 286.667C1935.52 286.875 1935.41 287.155 1935.41 287.447Z" fill="#3F3D56"/>
<path d="M1935.41 291.587C1935.41 291.878 1935.52 292.158 1935.73 292.366C1935.93 292.574 1936.21 292.693 1936.5 292.697H1951.1C1951.39 292.69 1951.66 292.571 1951.86 292.364C1952.07 292.158 1952.18 291.88 1952.18 291.592C1952.18 291.303 1952.07 291.026 1951.86 290.819C1951.66 290.613 1951.39 290.493 1951.1 290.487H1936.5C1936.36 290.487 1936.21 290.516 1936.08 290.572C1935.95 290.627 1935.83 290.709 1935.73 290.811C1935.63 290.913 1935.54 291.034 1935.49 291.167C1935.44 291.3 1935.41 291.443 1935.41 291.587Z" fill="#3F3D56"/>
<path d="M2141.4 331.057H1962.16C1959.81 331.06 1957.55 331.997 1955.89 333.662C1954.22 335.327 1953.29 337.584 1953.28 339.939V427.176C1953.29 429.53 1954.22 431.788 1955.89 433.453C1957.55 435.118 1959.81 436.055 1962.16 436.057H2141.4C2143.76 436.055 2146.01 435.118 2147.68 433.453C2149.34 431.788 2150.28 429.53 2150.28 427.176V339.939C2150.28 337.584 2149.34 335.327 2147.68 333.662C2146.01 331.997 2143.76 331.06 2141.4 331.057ZM2148.28 339.939V365.39H2085.28V333.057H2141.4C2143.23 333.059 2144.97 333.785 2146.26 335.075C2147.56 336.365 2148.28 338.114 2148.28 339.939ZM2020.28 399.724V367.39H2083.28V399.724H2020.28ZM2083.28 401.724V434.057H2020.28V401.724H2083.28ZM2018.28 399.724H1955.28V367.39H2018.28V399.724ZM2020.28 365.39V333.057H2083.28V365.39H2020.28ZM2085.28 367.39H2148.28V399.724H2085.28V367.39ZM1962.16 333.057H2018.28V365.39H1955.28V339.939C1955.28 338.114 1956.01 336.365 1957.3 335.075C1958.59 333.785 1960.34 333.059 1962.16 333.057ZM1955.28 427.176V401.724H2018.28V434.057H1962.16C1960.34 434.055 1958.59 433.33 1957.3 432.039C1956.01 430.749 1955.28 429 1955.28 427.176ZM2141.4 434.057H2085.28V401.724H2148.28V427.176C2148.28 429 2147.56 430.749 2146.27 432.039C2144.98 433.33 2143.23 434.055 2141.4 434.057Z" fill="#3F3D56"/>
<path d="M2042.67 353.206C2041.08 350.575 2039.2 347.766 2036.25 346.907C2032.83 345.912 2029.32 347.889 2026.34 349.839C2017.43 355.671 2008.85 361.991 2000.64 368.77L2000.65 368.872L2019.83 367.55C2024.44 367.232 2029.22 366.869 2033.3 364.685C2034.85 363.856 2036.36 362.749 2038.11 362.671C2040.29 362.576 2042.19 364.098 2043.69 365.689C2052.52 375.099 2055.08 389.488 2065 397.755C2058.74 382.339 2051.28 367.442 2042.67 353.206Z" fill="white"/>
<path d="M2096.99 433.017C2096.01 431.783 2095.61 431.494 2094.65 430.249C2086.8 420.098 2079.42 409.604 2072.52 398.768C2067.83 391.408 2063.37 383.907 2059.15 376.265C2057.13 372.631 2055.18 368.969 2053.28 365.279C2051.8 362.418 2050.36 359.539 2048.95 356.644C2048.55 355.817 2048.15 354.986 2047.76 354.153C2046.85 352.195 2045.95 350.227 2044.98 348.295C2043.98 345.976 2042.45 343.925 2040.51 342.306C2039.59 341.606 2038.48 341.182 2037.33 341.084C2035.71 341.093 2034.11 341.549 2032.73 342.401C2022.26 347.906 2012.49 354.646 2003.62 362.477C1994.74 370.276 1986.8 379.087 1979.97 388.731C1979.76 389.03 1979.26 388.744 1979.48 388.444C1980.31 387.269 1981.15 386.107 1982.02 384.957C1992.76 370.672 2005.93 358.388 2020.92 348.666C2023.45 347.031 2026.02 345.473 2028.64 343.991C2029.96 343.244 2031.28 342.506 2032.63 341.814C2033.92 341.057 2035.37 340.608 2036.86 340.502C2042 340.422 2044.66 346.24 2046.49 350.155C2047.06 351.387 2047.64 352.615 2048.23 353.839C2050.45 358.488 2052.76 363.094 2055.15 367.658C2056.63 370.475 2058.14 373.276 2059.68 376.061C2064.48 384.733 2069.58 393.229 2074.98 401.549C2082.14 412.571 2089.24 422.307 2097.39 432.614C2097.62 432.899 2097.22 433.306 2096.99 433.017Z" fill="white"/>
<path d="M2003.11 359.604C2002.81 359.271 2002.52 358.938 2002.22 358.606C1999.85 355.986 1997.31 353.396 1994.05 351.894C1992.5 351.156 1990.81 350.763 1989.09 350.744C1987.32 350.793 1985.57 351.174 1983.94 351.868C1983.16 352.178 1982.4 352.529 1981.66 352.904C1980.8 353.334 1979.96 353.792 1979.13 354.254C1977.56 355.121 1976.02 356.026 1974.49 356.969C1971.45 358.845 1968.51 360.865 1965.67 363.028C1964.19 364.15 1962.75 365.308 1961.33 366.504C1960.02 367.614 1958.73 368.754 1957.47 369.924C1957.2 370.173 1956.79 369.77 1957.06 369.521C1957.39 369.211 1957.73 368.903 1958.07 368.599C1959.02 367.739 1959.98 366.896 1960.97 366.07C1962.75 364.56 1964.59 363.109 1966.47 361.716C1969.4 359.549 1972.42 357.528 1975.55 355.655C1977.11 354.72 1978.7 353.823 1980.3 352.967C1980.79 352.708 1981.28 352.455 1981.78 352.216C1982.9 351.648 1984.07 351.172 1985.27 350.792C1986.98 350.241 1988.78 350.064 1990.56 350.273C1992.27 350.522 1993.93 351.095 1995.43 351.959C1998.63 353.744 2001.1 356.505 2003.52 359.199C2003.76 359.473 2003.36 359.878 2003.11 359.604Z" fill="white"/>
<path d="M2068.56 386.753L2076.21 383.954L2080.01 382.564C2081.24 382.07 2082.49 381.638 2083.76 381.272C2084.88 380.954 2086.06 380.969 2087.16 381.315C2088.14 381.679 2089.04 382.238 2089.81 382.957C2090.59 383.676 2091.31 384.451 2091.98 385.277C2092.81 386.271 2093.62 387.276 2094.44 388.277C2097.82 392.41 2101.18 396.561 2104.51 400.729C2107.85 404.898 2111.16 409.084 2114.45 413.288C2117.75 417.503 2121.03 421.735 2124.28 425.984C2124.68 426.505 2125.08 427.026 2125.47 427.547C2125.69 427.835 2126.19 427.551 2125.97 427.259C2122.69 422.967 2119.39 418.692 2116.07 414.435C2112.73 410.167 2109.38 405.918 2106 401.687C2102.63 397.456 2099.23 393.243 2095.8 389.049C2094.95 388.004 2094.1 386.96 2093.24 385.918C2092.52 385.038 2091.81 384.149 2091.02 383.331C2090.34 382.519 2089.51 381.847 2088.58 381.355C2087.65 380.864 2086.63 380.561 2085.57 380.464C2084.3 380.509 2083.05 380.784 2081.87 381.278C2080.59 381.741 2079.32 382.212 2078.04 382.68L2070.33 385.499L2068.41 386.203C2068.06 386.328 2068.21 386.88 2068.56 386.753Z" fill="white"/>
<path d="M1993.05 355.191C1991.08 354.222 1988.89 353.794 1986.7 353.95C1984.52 354.106 1982.41 354.842 1980.6 356.081C1987.42 357.257 1994.16 358.831 2000.79 360.794C1998.04 359.18 1995.89 356.65 1993.05 355.191Z" fill="white"/>
<path d="M1980.56 356.074L1979.81 356.683C1980.07 356.47 1980.33 356.27 1980.6 356.081L1980.56 356.074Z" fill="white"/>
<path d="M2089.52 386.781C2088.85 385.794 2087.92 385.014 2086.82 384.531L2085.77 384.573C2093.78 398.725 2104.6 411.091 2117.56 420.913L2089.52 386.781Z" fill="white"/>
<path d="M2084.6 371.286C2087.94 371.286 2090.66 368.573 2090.66 365.227C2090.66 361.881 2087.94 359.168 2084.6 359.168C2081.25 359.168 2078.54 361.881 2078.54 365.227C2078.54 368.573 2081.25 371.286 2084.6 371.286Z" fill="white"/>
<path d="M2172.52 432.557C2173.71 432.556 2174.86 432.081 2175.7 431.237C2176.55 430.394 2177.02 429.25 2177.02 428.057V335.057C2177.02 333.864 2176.55 332.719 2175.7 331.875C2174.86 331.031 2173.72 330.557 2172.52 330.557C2171.33 330.557 2170.18 331.031 2169.34 331.875C2168.5 332.719 2168.02 333.864 2168.02 335.057V428.057C2168.02 429.25 2168.5 430.394 2169.34 431.237C2170.19 432.081 2171.33 432.556 2172.52 432.557Z" fill="#3F3D56"/>
<path d="M2172.52 432.557C2173.71 432.556 2174.86 432.081 2175.7 431.237C2176.55 430.394 2177.02 429.25 2177.02 428.057V408.337C2176.5 407.631 2175.83 407.056 2175.04 406.66C2174.26 406.264 2173.4 406.057 2172.52 406.057C2171.65 406.057 2170.78 406.264 2170 406.66C2169.22 407.056 2168.54 407.631 2168.02 408.337V428.057C2168.02 429.25 2168.5 430.394 2169.34 431.237C2170.19 432.081 2171.33 432.556 2172.52 432.557Z" fill="#2F2E41"/>
<path d="M2172.52 413.557C2173.8 413.555 2175.03 413.045 2175.94 412.138C2176.85 411.231 2177.36 410.001 2177.36 408.718V387.509C2176.8 386.749 2176.08 386.131 2175.23 385.705C2174.39 385.279 2173.46 385.057 2172.52 385.057C2171.58 385.057 2170.65 385.279 2169.81 385.705C2168.97 386.131 2168.24 386.749 2167.68 387.509V408.718C2167.68 410.001 2168.19 411.231 2169.1 412.138C2170.01 413.045 2171.24 413.555 2172.52 413.557Z" fill="#6C63FF"/>
<path d="M2172.52 409.701C2173.46 409.7 2174.35 409.327 2175.02 408.666C2175.68 408.004 2176.05 407.107 2176.05 406.171V390.702C2175.65 390.148 2175.11 389.697 2174.5 389.386C2173.89 389.076 2173.21 388.914 2172.52 388.914C2171.83 388.914 2171.16 389.076 2170.54 389.386C2169.93 389.697 2169.4 390.148 2168.99 390.702V406.171C2168.99 407.107 2169.37 408.004 2170.03 408.666C2170.69 409.327 2171.59 409.7 2172.52 409.701Z" fill="#3F3D56"/>
<path d="M2033.7 537.036C2032.91 536.328 2032.43 535.336 2032.37 534.277C2032.31 533.218 2032.68 532.179 2033.38 531.388L2072.7 487.396C2073.05 487.004 2073.47 486.685 2073.94 486.458C2074.42 486.23 2074.93 486.097 2075.46 486.068C2075.98 486.038 2076.51 486.113 2077 486.286C2077.5 486.46 2077.95 486.729 2078.35 487.079C2078.74 487.429 2079.06 487.853 2079.28 488.326C2079.51 488.799 2079.64 489.313 2079.67 489.837C2079.7 490.362 2079.63 490.887 2079.46 491.383C2079.28 491.879 2079.01 492.335 2078.66 492.727L2039.35 536.719C2038.64 537.509 2037.65 537.986 2036.59 538.045C2035.53 538.105 2034.49 537.742 2033.7 537.036Z" fill="#6C63FF"/>
<path d="M2359.85 609.466C2359.85 616.756 2358.13 622.336 2358.34 626.796C2346.54 631.945 2334.42 636.294 2322.04 639.816C2320.64 640.216 2319.24 640.596 2317.83 640.976C2310.2 617.616 2302.56 596.226 2299.55 593.956C2292.66 588.786 2289.21 610.176 2289.21 605.006C2289.21 599.836 2292.66 599.836 2284.05 592.946C2275.43 586.056 2280.6 555.046 2280.6 555.046L2268.54 524.036L2282.03 474.576L2299.55 410.326H2316.78C2316.78 410.326 2317.29 410.696 2318.14 411.386C2322.45 414.906 2335.45 426.666 2334.01 439.616C2333.58 443.476 2334.54 454.696 2336.21 469.636C2341.29 514.746 2352.96 563.786 2352.96 576.726C2352.96 593.956 2359.85 599.126 2359.85 609.466Z" fill="#E6E6E6"/>
<path d="M2345.4 469.467C2345.38 469.417 2345.37 469.377 2345.35 469.337C2344.97 468.297 2344.51 467.282 2344 466.297C2341.09 460.827 2344.17 452.427 2340.89 443.147C2335.59 428.107 2329.13 419.237 2319.66 411.287C2319.38 411.047 2319.1 410.817 2318.81 410.577L2318.8 410.567C2312.48 405.377 2304.86 400.527 2295.4 394.487C2293.43 393.227 2291.37 391.917 2289.23 390.537C2286.47 388.767 2286.62 382.867 2286.78 376.627C2286.96 369.697 2287.15 362.517 2283.75 358.037L2283.53 357.747L2283.18 357.657C2271.52 355.352 2259.64 354.435 2247.76 354.927H2247.75C2242.71 355.115 2237.7 355.849 2232.82 357.117C2232.46 357.217 2232.1 357.317 2231.75 357.437C2231.48 357.507 2231.21 357.597 2230.94 357.687L2230.72 357.767L2230.55 357.927C2227.26 361.217 2226.5 367.117 2226.14 373.267V373.277C2226.07 374.397 2226.01 375.517 2225.96 376.637C2225.68 382.617 2225.42 388.267 2223.22 390.717C2218.31 396.277 2212.38 400.84 2205.75 404.157C2195.42 409.257 2187.25 409.097 2187.13 409.097L2186.18 409.067L2186.09 410.007C2179.23 423.077 2179.49 456.797 2179.28 492.907C2179.27 494.917 2179.26 496.937 2179.24 498.967C2179.12 515.787 2178.8 532.897 2177.54 548.487C2176.99 555.187 2176.28 561.597 2175.33 567.587C2170.71 596.757 2149.78 572.537 2139.77 591.947C2140.1 593.856 2140.65 595.719 2141.42 597.497C2142.57 598.177 2143.75 598.837 2144.92 599.497C2150.11 602.387 2155.4 605.084 2160.78 607.587C2161.08 607.727 2161.38 607.867 2161.68 607.997C2171.56 612.566 2181.73 616.449 2192.14 619.617C2194.17 620.237 2196.2 620.827 2198.25 621.387C2216.39 626.393 2235.06 629.19 2253.86 629.717C2253.94 629.709 2254.02 629.705 2254.09 629.707C2276.33 629.092 2298.42 625.908 2319.93 620.217C2320.23 620.137 2320.53 620.057 2320.83 619.977C2322.24 619.597 2323.64 619.217 2325.04 618.817C2337.42 615.295 2349.55 610.946 2361.34 605.797C2361.35 606.237 2361.4 606.674 2361.47 607.107C2361.48 607.249 2361.5 607.389 2361.53 607.527C2361.55 607.367 2361.57 607.207 2361.58 607.047C2361.64 606.577 2361.69 606.097 2361.74 605.617C2367.86 545.937 2355.15 495.267 2345.4 469.467Z" fill="#3F3D56"/>
<path d="M2207.97 323.2C2214.07 334.361 2223.79 343.11 2235.53 348.007C2247.27 352.904 2260.33 353.657 2272.56 350.141C2284.78 346.626 2295.45 339.052 2302.79 328.667C2310.14 318.281 2313.73 305.704 2312.97 293.006C2312.21 280.308 2307.15 268.246 2298.62 258.808C2290.1 249.369 2278.61 243.116 2266.05 241.079C2253.5 239.041 2240.62 241.341 2229.55 247.599C2218.47 253.857 2209.86 263.7 2205.12 275.507C2204.87 276.147 2204.64 276.788 2204.41 277.455C2201.73 284.898 2200.66 292.824 2201.28 300.71C2201.89 308.595 2204.17 316.261 2207.97 323.2Z" fill="#FFB6B6"/>
<path d="M2199.92 277.455C2202.33 270.714 2201.28 274.225 2203.71 267.511C2202.12 273.457 2204.64 276.788 2204.41 277.455H2271.06V238.705C2251.54 230.966 2232.44 224.379 2220.91 238.705C2210.63 238.706 2200.78 242.788 2193.51 250.055C2186.24 257.322 2182.16 267.178 2182.16 277.455H2199.92Z" fill="#2F2E41"/>
<path d="M2223.55 385.168C2223.6 384.451 2223.68 383.707 2223.78 382.99C2224.5 377.71 2226.29 372.636 2228.11 367.613C2230.03 362.206 2231.98 356.772 2233.93 351.365C2231.42 361.181 2232.19 371.547 2236.11 380.888C2247.36 372.124 2240.26 352.083 2254.97 352.083C2290.34 352.083 2326.73 323.405 2326.73 288.013C2326.73 252.647 2311.56 226.199 2276.19 226.199C2240.8 226.199 2212.09 242.396 2211.4 277.762C2254.97 288.013 2215.32 381.58 2223.55 385.168Z" fill="#2F2E41"/>
<path d="M2322.31 282.592C2344.95 282.592 2363.31 264.234 2363.31 241.588C2363.31 218.942 2344.95 200.583 2322.31 200.583C2299.66 200.583 2281.3 218.942 2281.3 241.588C2281.3 264.234 2299.66 282.592 2322.31 282.592Z" fill="#2F2E41"/>
<path d="M2386.23 476.747C2386.09 478.857 2385.97 481.104 2385.86 483.487C2383.74 528.377 2385.57 588.807 2371.28 621.597C2368.08 623.347 2364.85 625.021 2361.58 626.617C2361.45 626.677 2361.33 626.737 2361.22 626.797C2360.34 627.227 2359.46 627.647 2358.58 628.047C2358.55 628.075 2358.51 628.095 2358.47 628.107C2348.81 632.673 2338.85 636.586 2328.66 639.817C2327.41 640.217 2326.15 640.597 2324.89 640.977C2324.62 641.057 2324.35 641.137 2324.08 641.217C2304.89 646.893 2285.05 650.083 2265.04 650.707C2264 650.737 2262.98 650.757 2261.99 650.777C2261.64 650.787 2261.3 650.797 2260.96 650.797C2259.84 650.807 2258.73 650.817 2257.61 650.817C2255.35 650.817 2253.1 650.784 2250.86 650.717C2232.06 650.19 2213.39 647.393 2195.25 642.387C2193.2 641.827 2191.17 641.237 2189.14 640.617C2178.73 637.449 2168.56 633.566 2158.68 628.997C2158.38 628.867 2158.08 628.727 2157.78 628.587C2152.4 626.087 2147.12 623.391 2141.92 620.497C2140.75 619.837 2139.57 619.177 2138.42 618.497C2137.65 616.719 2137.1 614.856 2136.77 612.947C2134.5 602.037 2132.68 609.397 2131.38 586.697C2130.19 565.887 2129.43 545.017 2129.15 533.087C2129.06 529.907 2129.03 527.357 2129.02 525.617C2130.08 518.037 2147.12 509.437 2171.97 501.267C2174.32 500.497 2176.75 499.727 2179.24 498.967C2185.96 496.897 2193.14 494.867 2200.64 492.907C2219.74 487.907 2240.95 483.317 2262 479.527C2272.39 477.667 2282.74 475.997 2292.79 474.577C2310.42 472.077 2327.1 470.347 2341.37 469.637C2342.74 469.567 2344.08 469.507 2345.4 469.467C2346.82 469.407 2348.21 469.367 2349.57 469.337C2370.13 468.887 2384.17 471.027 2386.23 476.747Z" fill="#2F2E41"/>
<path opacity="0.2" d="M2386.23 476.747C2386.09 478.857 2385.97 481.104 2385.86 483.487C2370.28 466.707 2202.44 541.667 2131.38 586.697C2130.19 565.887 2129.43 545.017 2129.15 533.087C2129.06 529.907 2129.03 527.357 2129.02 525.617C2130.08 518.037 2147.12 509.437 2171.97 501.267C2174.32 500.497 2176.75 499.727 2179.24 498.967C2185.96 496.897 2193.14 494.867 2200.64 492.907C2219.74 487.907 2240.95 483.317 2262 479.527C2272.39 477.667 2282.74 475.997 2292.79 474.577C2310.42 472.077 2327.1 470.347 2341.37 469.637C2342.74 469.567 2344.08 469.507 2345.4 469.467C2346.82 469.407 2348.21 469.367 2349.57 469.337C2370.13 468.887 2384.17 471.027 2386.23 476.747Z" fill="black"/>
<path d="M2044.9 528.76C2046.47 530.744 2048.46 532.359 2050.73 533.492C2053 534.624 2055.48 535.245 2058.01 535.312C2060.55 535.38 2063.06 534.891 2065.38 533.881C2067.71 532.871 2069.78 531.364 2071.46 529.466L2128.4 552.855L2122.26 521.458L2069.12 504.061C2065.75 501.455 2061.53 500.178 2057.28 500.471C2053.02 500.764 2049.03 502.608 2046.04 505.652C2043.05 508.697 2041.29 512.731 2041.08 516.99C2040.87 521.248 2042.23 525.437 2044.9 528.76Z" fill="#FFB6B6"/>
<path d="M2234.34 398.02L2234.02 397.987L2200.81 400.398C2196.6 400.704 2192.49 401.903 2188.78 403.916C2185.06 405.929 2181.81 408.709 2179.25 412.073C2178.06 413.631 2177.03 415.306 2176.18 417.07L2176.17 417.076C2173.31 422.933 2172.44 429.568 2173.71 435.963L2189.35 514.666L2151.73 511.248L2138 513.595L2121.79 507.057L2088.54 507.623L2087.77 510.172L2080.8 533.295L2080.25 535.112L2131.02 567.109L2145.74 562.63L2152.68 567.958L2153.01 567.966L2166.76 568.238L2225.41 569.388L2241.44 540.987L2243.95 536.534C2262.57 494.825 2267.16 465.708 2265.7 445.649C2264.94 435.05 2262.49 426.993 2259.52 420.922C2250.35 402.159 2234.98 398.178 2234.34 398.02Z" fill="#3F3D56"/>
<path d="M2327.49 277.993C2319.72 276.244 2312.51 272.562 2306.54 267.285C2300.56 262.009 2296.02 255.31 2293.32 247.81C2290.91 240.832 2290.01 233.17 2285.97 226.959C2292.12 218.511 2297.05 209.24 2300.62 199.418C2302.01 195.616 2305.24 188.713 2299.76 186.621C2295.38 184.955 2290.42 188.977 2287.83 192.151C2285.86 194.556 2284.45 197.367 2283.7 200.382C2282.8 196.436 2281.91 192.491 2281.02 188.546C2280.9 188.168 2280.65 187.848 2280.3 187.652C2279.96 187.457 2279.55 187.402 2279.17 187.499C2271.85 188.747 2266.54 195.526 2265.62 202.667C2265.11 206.344 2265.95 210.078 2267.97 213.189C2270.32 216.767 2273.77 219.332 2277.05 221.999C2280.53 224.835 2283.49 227.855 2285.36 232.002C2287.31 236.312 2288.19 241.028 2289.48 245.554C2291.93 254.246 2296.68 262.116 2303.23 268.334C2309.78 274.552 2317.89 278.888 2326.7 280.885C2328.58 281.297 2329.38 278.405 2327.49 277.993ZM2286.15 206.277C2285.91 202.509 2286.91 198.766 2288.98 195.612C2290.02 194.014 2291.33 192.602 2292.84 191.438C2294.27 190.344 2296.38 188.895 2298.28 189.297C2300.74 189.818 2299.75 192.562 2299.22 194.216C2298.54 196.399 2297.78 198.558 2296.95 200.695C2295.34 204.843 2293.48 208.887 2291.36 212.802C2290.27 214.84 2289.09 216.835 2287.87 218.797C2287.02 215.067 2286.18 211.338 2285.33 207.609C2285.6 207.511 2285.82 207.326 2285.97 207.085C2286.12 206.843 2286.18 206.558 2286.15 206.277ZM2268.63 206.874C2268.14 203.466 2268.85 199.994 2270.64 197.054C2272.43 194.114 2275.19 191.89 2278.44 190.763C2280.83 201.277 2283.21 211.791 2285.59 222.304C2285.1 223.029 2284.59 223.743 2284.08 224.456C2283.95 224.303 2283.83 224.145 2283.69 223.994C2278.69 218.559 2269.98 214.854 2268.63 206.874Z" fill="#6C63FF"/>
</g>
<line x1="757.982" y1="347.036" x2="1067" y2="347.036" stroke="black" stroke-dasharray="2 2"/>
<defs>
<clipPath id="clip0_104_282">
<rect width="846.67" height="497.803" fill="white" transform="translate(0 163)"/>
</clipPath>
<clipPath id="clip1_104_282">
<rect width="866.524" height="637.056" fill="white" transform="translate(1012)"/>
</clipPath>
<clipPath id="clip2_104_282">
<rect width="563.232" height="596.817" fill="white" transform="translate(1823 54)"/>
</clipPath>
</defs>
</svg>
