<svg width="666" height="498" viewBox="0 0 666 498" fill="none" xmlns="http://www.w3.org/2000/svg">
<path d="M109.953 186L216 295.315V354H166.512V316.411L89.4885 237.014H73.4884V354H24V186H109.953Z" fill="#141415"/>
<path d="M229.688 354V281.273H249.432V338.091H278.835V354H229.688ZM286.816 281.273H311.39L328.294 322.466H329.146L346.049 281.273H370.623V354H351.305V311.955H350.737L334.544 353.432H322.896L306.703 311.67H306.135V354H286.816V281.273ZM450.435 317.636C450.435 325.733 448.861 332.563 445.712 338.126C442.563 343.666 438.314 347.868 432.963 350.733C427.613 353.574 421.647 354.994 415.066 354.994C408.437 354.994 402.447 353.562 397.097 350.697C391.77 347.809 387.533 343.595 384.384 338.055C381.259 332.492 379.696 325.686 379.696 317.636C379.696 309.54 381.259 302.722 384.384 297.182C387.533 291.618 391.77 287.416 397.097 284.575C402.447 281.711 408.437 280.278 415.066 280.278C421.647 280.278 427.613 281.711 432.963 284.575C438.314 287.416 442.563 291.618 445.712 297.182C448.861 302.722 450.435 309.54 450.435 317.636ZM430.123 317.636C430.123 313.28 429.542 309.611 428.382 306.628C427.246 303.621 425.553 301.348 423.304 299.81C421.079 298.247 418.333 297.466 415.066 297.466C411.799 297.466 409.041 298.247 406.792 299.81C404.566 301.348 402.873 303.621 401.713 306.628C400.577 309.611 400.009 313.28 400.009 317.636C400.009 321.992 400.577 325.674 401.713 328.68C402.873 331.663 404.566 333.936 406.792 335.499C409.041 337.037 411.799 337.807 415.066 337.807C418.333 337.807 421.079 337.037 423.304 335.499C425.553 333.936 427.246 331.663 428.382 328.68C429.542 325.674 430.123 321.992 430.123 317.636ZM522.496 281.273V354H506.019L479.741 315.79H479.315V354H459.57V281.273H476.332L502.184 319.341H502.752V281.273H522.496ZM559.819 354H531.836V281.273H559.535C567.016 281.273 573.479 282.729 578.924 285.641C584.393 288.529 588.607 292.696 591.566 298.141C594.549 303.562 596.04 310.061 596.04 317.636C596.04 325.212 594.561 331.723 591.602 337.168C588.642 342.589 584.452 346.756 579.031 349.668C573.609 352.556 567.205 354 559.819 354ZM551.58 337.239H559.109C562.707 337.239 565.773 336.659 568.306 335.499C570.863 334.339 572.804 332.338 574.13 329.497C575.479 326.656 576.154 322.703 576.154 317.636C576.154 312.57 575.468 308.616 574.094 305.776C572.745 302.935 570.756 300.934 568.129 299.774C565.524 298.614 562.328 298.034 558.54 298.034H551.58V337.239Z" fill="#111111"/>
</svg>
