<svg width="666" height="426" viewBox="0 0 666 426" fill="none" xmlns="http://www.w3.org/2000/svg">
<path d="M109.953 72L216 181.315V240H166.512V202.411L89.4885 123.014H73.4884V240H24V72H109.953Z" fill="white"/>
<path d="M229.688 240V167.273H249.432V224.091H278.835V240H229.688ZM286.816 167.273H311.39L328.294 208.466H329.146L346.049 167.273H370.623V240H351.305V197.955H350.737L334.544 239.432H322.896L306.703 197.67H306.135V240H286.816V167.273ZM450.435 203.636C450.435 211.733 448.861 218.563 445.712 224.126C442.563 229.666 438.314 233.868 432.963 236.733C427.613 239.574 421.647 240.994 415.066 240.994C408.437 240.994 402.447 239.562 397.097 236.697C391.77 233.809 387.533 229.595 384.384 224.055C381.259 218.492 379.696 211.686 379.696 203.636C379.696 195.54 381.259 188.722 384.384 183.182C387.533 177.618 391.77 173.416 397.097 170.575C402.447 167.711 408.437 166.278 415.066 166.278C421.647 166.278 427.613 167.711 432.963 170.575C438.314 173.416 442.563 177.618 445.712 183.182C448.861 188.722 450.435 195.54 450.435 203.636ZM430.123 203.636C430.123 199.28 429.542 195.611 428.382 192.628C427.246 189.621 425.553 187.348 423.304 185.81C421.079 184.247 418.333 183.466 415.066 183.466C411.799 183.466 409.041 184.247 406.792 185.81C404.566 187.348 402.873 189.621 401.713 192.628C400.577 195.611 400.009 199.28 400.009 203.636C400.009 207.992 400.577 211.674 401.713 214.68C402.873 217.663 404.566 219.936 406.792 221.499C409.041 223.037 411.799 223.807 415.066 223.807C418.333 223.807 421.079 223.037 423.304 221.499C425.553 219.936 427.246 217.663 428.382 214.68C429.542 211.674 430.123 207.992 430.123 203.636ZM522.496 167.273V240H506.019L479.741 201.79H479.315V240H459.57V167.273H476.332L502.184 205.341H502.752V167.273H522.496ZM559.819 240H531.836V167.273H559.535C567.016 167.273 573.479 168.729 578.924 171.641C584.393 174.529 588.607 178.696 591.566 184.141C594.549 189.562 596.04 196.061 596.04 203.636C596.04 211.212 594.561 217.723 591.602 223.168C588.642 228.589 584.452 232.756 579.031 235.668C573.609 238.556 567.205 240 559.819 240ZM551.58 223.239H559.109C562.707 223.239 565.773 222.659 568.306 221.499C570.863 220.339 572.804 218.338 574.13 215.497C575.479 212.656 576.154 208.703 576.154 203.636C576.154 198.57 575.468 194.616 574.094 191.776C572.745 188.935 570.756 186.934 568.129 185.774C565.524 184.614 562.328 184.034 558.54 184.034H551.58V223.239Z" fill="white"/>
</svg>
